<svg xmlns="http://www.w3.org/2000/svg" xmlns:xlink="http://www.w3.org/1999/xlink" width="500" zoomAndPan="magnify" viewBox="0 0 375 374.999991" height="500" preserveAspectRatio="xMidYMid meet" version="1.0"><defs><g/><clipPath id="184d1a0bc0"><path d="M 118 112.308594 L 239 112.308594 L 239 226 L 118 226 Z M 118 112.308594 " clip-rule="nonzero"/></clipPath><clipPath id="e3370da777"><path d="M 202.277344 125.460938 C 202.183594 125.738281 202.15625 136.078125 202.160156 149.375 L 183.730469 159.707031 L 183.730469 135.863281 Z M 170.734375 149.386719 L 170.734375 144.210938 L 163.460938 146.160156 L 157.324219 147.816406 L 156.253906 148.105469 L 143.886719 151.441406 L 143.886719 155.5 L 156.796875 152.546875 Z M 170.734375 159.882812 L 170.734375 154.839844 L 163.355469 156.136719 L 157.136719 157.242188 L 156.0625 157.4375 L 143.886719 159.597656 L 143.886719 163.957031 L 156.789062 161.992188 Z M 170.734375 138.894531 L 170.734375 133.582031 L 163.570312 136.179688 L 157.507812 138.386719 L 156.449219 138.777344 L 143.886719 143.351562 L 143.886719 147.042969 L 156.808594 143.105469 Z M 156.773438 171.429688 L 170.734375 170.375 L 170.734375 165.46875 L 163.246094 166.117188 L 156.953125 166.667969 L 155.871094 166.765625 L 143.890625 167.816406 L 143.890625 172.359375 L 144.03125 172.402344 Z M 226.015625 136 L 226.015625 189.035156 L 238.878906 194.839844 L 238.878906 151.613281 Z M 170.734375 128.398438 L 170.734375 122.957031 L 163.675781 126.203125 L 157.691406 128.960938 L 156.640625 129.449219 L 143.886719 135.328125 L 143.886719 138.585938 L 156.816406 133.671875 Z M 170.722656 117.894531 L 170.734375 112.328125 L 163.785156 116.226562 L 156.832031 120.121094 L 143.886719 127.378906 L 143.886719 130.128906 L 156.828125 124.230469 Z M 189.925781 193.648438 L 177.277344 196.429688 L 166.371094 198.828125 L 147.082031 203.066406 L 128.757812 207.09375 L 127.402344 207.394531 L 118.167969 209.421875 L 118.167969 211.382812 L 156.597656 205.90625 L 162.085938 205.125 L 177.277344 202.960938 L 189.925781 201.15625 L 189.984375 201.164062 L 189.984375 193.636719 Z M 189.925781 179.691406 L 183.578125 181.90625 L 181.546875 182.617188 L 177.277344 184.105469 L 176.117188 184.511719 L 138.78125 197.542969 L 127.402344 201.515625 L 118.164062 204.742188 L 118.164062 206.785156 L 127.402344 204.398438 L 136.570312 202.027344 L 140.332031 201.054688 L 170.089844 193.367188 L 177.273438 191.507812 L 189.921875 188.238281 L 189.976562 188.253906 L 189.976562 179.714844 Z M 177.277344 208.488281 L 118.164062 213.339844 L 118.164062 215.203125 L 177.277344 214.167969 L 189.925781 213.945312 L 189.980469 213.945312 L 189.980469 207.449219 L 189.925781 207.453125 Z M 155.582031 176.09375 L 170.5625 180.882812 L 170.597656 180.867188 L 170.601562 179.355469 L 170.601562 177.722656 L 170.605469 176.09375 Z M 177.277344 218.714844 L 118.164062 216.941406 L 118.164062 218.710938 L 189.925781 225.140625 L 189.980469 225.136719 L 189.980469 219.097656 L 189.925781 219.09375 Z M 177.277344 218.714844 " clip-rule="nonzero"/></clipPath><linearGradient x1="342.592643" gradientTransform="matrix(0.206618, 0, 0, 0.206767, 117.765337, 112.327667)" y1="-26.316172" x2="277.585074" gradientUnits="userSpaceOnUse" y2="575.381782" id="568835bf7f"><stop stop-opacity="1" stop-color="rgb(77.661133%, 59.085083%, 22.087097%)" offset="0"/><stop stop-opacity="1" stop-color="rgb(77.615356%, 59.01947%, 22.03064%)" offset="0.103695"/><stop stop-opacity="1" stop-color="rgb(77.56958%, 58.953857%, 21.974182%)" offset="0.5"/><stop stop-opacity="1" stop-color="rgb(77.523804%, 58.886719%, 21.917725%)" offset="0.896305"/><stop stop-opacity="1" stop-color="rgb(77.478027%, 58.821106%, 21.861267%)" offset="1"/></linearGradient><clipPath id="279513b26b"><path d="M 127 112.308594 L 249.015625 112.308594 L 249.015625 226 L 127 226 Z M 127 112.308594 " clip-rule="nonzero"/></clipPath></defs><g fill="#000000" fill-opacity="1"><g transform="translate(88.997689, 262.695504)"><g><path d="M 8.429688 -84.308594 C 8.429688 -31.699219 46.199219 3.371094 92.570312 3.371094 C 121.402344 3.371094 149.054688 -5.5625 157.316406 -18.042969 L 157.316406 -36.925781 C 144.335938 -18.378906 119.042969 0 92.570312 0 C 53.621094 0 21.921875 -33.722656 21.921875 -84.308594 C 21.921875 -134.890625 53.621094 -168.613281 92.570312 -168.613281 C 121.402344 -168.613281 146.019531 -148.71875 148.550781 -129.832031 C 148.550781 -129.832031 156.136719 -129.496094 156.136719 -139.105469 C 156.136719 -160.859375 123.089844 -171.988281 92.570312 -171.988281 C 46.199219 -171.988281 8.429688 -136.914062 8.429688 -84.308594 Z M 8.429688 -84.308594 "/></g></g></g><g clip-path="url(#184d1a0bc0)"><g clip-path="url(#e3370da777)"><path fill="url(#568835bf7f)" d="M 118.164062 112.328125 L 118.164062 225.140625 L 238.878906 225.140625 L 238.878906 112.328125 Z M 118.164062 112.328125 " fill-rule="nonzero"/></g></g><g clip-path="url(#279513b26b)"><path fill="#000000" d="M 211.265625 144.269531 L 202.28125 149.308594 L 202.28125 125.460938 L 211.265625 136.367188 Z M 170.734375 117.902344 L 183.578125 129.589844 L 183.578125 127.914062 L 170.734375 112.328125 Z M 170.734375 128.398438 L 183.578125 138.132812 L 183.578125 135.941406 L 170.734375 122.957031 Z M 170.734375 138.894531 L 183.578125 146.683594 L 183.578125 143.976562 L 170.734375 133.582031 Z M 170.734375 149.386719 L 183.578125 155.230469 L 183.578125 152.003906 L 170.734375 144.210938 Z M 170.734375 159.882812 L 178.96875 162.378906 L 183.328125 159.933594 L 170.730469 154.839844 L 170.730469 159.882812 Z M 170.734375 170.375 L 177.277344 171.367188 L 177.277344 166.789062 L 170.734375 165.46875 Z M 170.605469 180.863281 L 177.277344 178.0625 L 177.277344 176.09375 L 170.605469 176.09375 Z M 127.402344 199.003906 L 138.78125 194.226562 L 138.78125 170.726562 L 127.402344 179.140625 Z M 238.878906 198.46875 L 226.015625 193.535156 L 225.867188 193.476562 L 189.980469 179.714844 L 189.980469 188.253906 L 225.875 197.847656 L 226.015625 197.886719 L 238.878906 201.324219 L 249.015625 204.035156 L 249.015625 202.355469 Z M 229.261719 203.117188 L 226.015625 202.332031 L 225.882812 202.300781 L 189.980469 193.636719 L 189.980469 201.167969 L 190.027344 201.160156 L 225.890625 206.4375 L 238.878906 208.351562 L 249.015625 209.84375 L 249.015625 207.886719 L 238.878906 205.4375 Z M 225.898438 211.03125 L 189.980469 207.445312 L 189.980469 213.945312 L 190.027344 213.941406 L 225.90625 214.707031 L 238.878906 214.984375 L 249.015625 215.203125 L 249.015625 213.335938 L 238.878906 212.328125 Z M 225.914062 218.417969 L 190.09375 219.097656 L 189.980469 219.09375 L 189.980469 225.136719 L 238.878906 220.175781 L 249.015625 219.148438 L 249.015625 217.980469 L 238.878906 218.171875 Z M 225.914062 218.417969 " fill-opacity="1" fill-rule="nonzero"/></g><g fill="#002855" fill-opacity="1"><g transform="translate(187.499992, 265.633708)"><g><path d="M 166 26.015625 C 158.050781 29.992188 149.585938 31.984375 140.609375 31.984375 C 132.648438 31.984375 125.40625 30.757812 118.875 28.3125 C 104.800781 23.101562 92.816406 12.953125 82.921875 -2.140625 C 80.367188 -5.816406 75.625 -12.851562 68.6875 -23.25 C 61.757812 -33.65625 57.273438 -40.285156 55.234375 -43.140625 C 51.660156 -48.753906 48.804688 -51.816406 46.671875 -52.328125 L 46.671875 -53.859375 C 46.765625 -53.859375 46.890625 -53.859375 47.046875 -53.859375 C 47.203125 -53.859375 47.378906 -53.859375 47.578125 -53.859375 C 47.785156 -53.859375 47.988281 -53.859375 48.1875 -53.859375 C 48.394531 -53.859375 48.648438 -53.859375 48.953125 -53.859375 C 49.265625 -53.859375 49.519531 -53.859375 49.71875 -53.859375 C 54.925781 -53.859375 59.722656 -55.03125 64.109375 -57.375 C 70.734375 -61.050781 74.046875 -67.832031 74.046875 -77.71875 C 74.046875 -84.96875 72.003906 -90.554688 67.921875 -94.484375 C 63.847656 -98.410156 58.957031 -100.375 53.25 -100.375 L 41.609375 -100.375 L 41.609375 -11.171875 C 41.609375 -8.515625 42.578125 -6.242188 44.515625 -4.359375 C 46.460938 -2.472656 48.757812 -1.53125 51.40625 -1.53125 L 53.390625 -1.53125 L 53.390625 0 L 6.890625 0 L 6.890625 -1.53125 L 8.875 -1.53125 C 11.425781 -1.53125 13.671875 -2.445312 15.609375 -4.28125 C 17.546875 -6.113281 18.566406 -8.359375 18.671875 -11.015625 L 18.671875 -95.9375 C 18.566406 -98.582031 17.570312 -100.847656 15.6875 -102.734375 C 13.800781 -104.617188 11.53125 -105.5625 8.875 -105.5625 L 6.890625 -105.5625 L 6.890625 -107.09375 L 59.359375 -107.09375 C 72.515625 -107.09375 82.71875 -104.085938 89.96875 -98.078125 C 95.675781 -93.378906 98.53125 -86.742188 98.53125 -78.171875 C 98.53125 -69.609375 95.75 -62.648438 90.1875 -57.296875 C 84.632812 -51.941406 78.285156 -49.265625 71.140625 -49.265625 C 70.535156 -49.265625 69.875 -49.316406 69.15625 -49.421875 C 73.332031 -47.171875 76.820312 -44.671875 79.625 -41.921875 C 82.4375 -39.171875 84.882812 -36.570312 86.96875 -34.125 C 89.0625 -31.675781 90.847656 -29.503906 92.328125 -27.609375 C 93.804688 -25.722656 95.769531 -23.222656 98.21875 -20.109375 C 100.664062 -17.003906 103.21875 -13.769531 105.875 -10.40625 C 108.53125 -7.039062 111.460938 -3.597656 114.671875 -0.078125 C 117.890625 3.441406 121.460938 6.78125 125.390625 9.9375 C 129.316406 13.101562 133.316406 15.707031 137.390625 17.75 C 146.066406 22.132812 155.601562 24.378906 166 24.484375 Z M 166 26.015625 "/></g></g></g><g fill="#002855" fill-opacity="1"><g transform="translate(150.787674, 92.003445)"><g><path d="M -2.140625 -12.46875 L 0.296875 -13.171875 L 3.734375 -1.0625 L 1.296875 -0.359375 Z M -2.140625 -12.46875 "/></g></g></g><g fill="#002855" fill-opacity="1"><g transform="translate(155.272881, 90.512545)"><g><path d="M -1 -12.625 L 1.203125 -13.046875 L 9.59375 -5.390625 L 9.6875 -5.40625 L 8.015625 -14.328125 L 9.625 -14.625 L 11.953125 -2.25 L 9.734375 -1.84375 L 1.328125 -9.5 L 1.234375 -9.484375 L 2.921875 -0.546875 L 1.328125 -0.25 Z M -1 -12.625 "/></g></g></g><g fill="#002855" fill-opacity="1"><g transform="translate(167.828084, 88.102097)"><g><path d="M 7.5625 -0.078125 C 6.59375 -0.015625 5.679688 -0.132812 4.828125 -0.4375 C 3.972656 -0.738281 3.222656 -1.171875 2.578125 -1.734375 C 1.941406 -2.296875 1.425781 -2.96875 1.03125 -3.75 C 0.632812 -4.539062 0.410156 -5.398438 0.359375 -6.328125 C 0.304688 -7.253906 0.429688 -8.128906 0.734375 -8.953125 C 1.035156 -9.773438 1.472656 -10.503906 2.046875 -11.140625 C 2.617188 -11.785156 3.3125 -12.300781 4.125 -12.6875 C 4.9375 -13.082031 5.828125 -13.3125 6.796875 -13.375 C 7.671875 -13.425781 8.441406 -13.332031 9.109375 -13.09375 C 9.773438 -12.851562 10.335938 -12.582031 10.796875 -12.28125 C 11.316406 -11.925781 11.773438 -11.519531 12.171875 -11.0625 L 11.40625 -10.21875 C 11.070312 -10.550781 10.691406 -10.859375 10.265625 -11.140625 C 9.910156 -11.359375 9.476562 -11.554688 8.96875 -11.734375 C 8.457031 -11.921875 7.882812 -11.992188 7.25 -11.953125 C 6.632812 -11.921875 6.0625 -11.765625 5.53125 -11.484375 C 5 -11.210938 4.539062 -10.832031 4.15625 -10.34375 C 3.78125 -9.863281 3.492188 -9.296875 3.296875 -8.640625 C 3.097656 -7.992188 3.019531 -7.273438 3.0625 -6.484375 C 3.101562 -5.691406 3.257812 -4.984375 3.53125 -4.359375 C 3.8125 -3.734375 4.164062 -3.203125 4.59375 -2.765625 C 5.03125 -2.335938 5.523438 -2.015625 6.078125 -1.796875 C 6.640625 -1.585938 7.226562 -1.5 7.84375 -1.53125 C 8.539062 -1.570312 9.144531 -1.71875 9.65625 -1.96875 C 10.164062 -2.226562 10.585938 -2.503906 10.921875 -2.796875 C 11.316406 -3.128906 11.660156 -3.507812 11.953125 -3.9375 L 12.890625 -3.1875 C 12.566406 -2.632812 12.148438 -2.140625 11.640625 -1.703125 C 11.203125 -1.328125 10.648438 -0.972656 9.984375 -0.640625 C 9.316406 -0.316406 8.507812 -0.128906 7.5625 -0.078125 Z M 7.5625 -0.078125 "/></g></g></g><g fill="#002855" fill-opacity="1"><g transform="translate(94.271879, 203.670366)"><g><path d="M -0.96875 -7.5 C -0.800781 -6.550781 -0.8125 -5.628906 -1 -4.734375 C -1.195312 -3.847656 -1.539062 -3.050781 -2.03125 -2.34375 C -2.519531 -1.644531 -3.128906 -1.050781 -3.859375 -0.5625 C -4.585938 -0.0820312 -5.410156 0.238281 -6.328125 0.40625 C -7.234375 0.5625 -8.113281 0.539062 -8.96875 0.34375 C -9.832031 0.144531 -10.613281 -0.195312 -11.3125 -0.6875 C -12.007812 -1.1875 -12.601562 -1.820312 -13.09375 -2.59375 C -13.582031 -3.363281 -13.910156 -4.222656 -14.078125 -5.171875 C -14.234375 -6.035156 -14.234375 -6.8125 -14.078125 -7.5 C -13.921875 -8.1875 -13.71875 -8.773438 -13.46875 -9.265625 C -13.175781 -9.828125 -12.832031 -10.328125 -12.4375 -10.765625 L -11.5 -10.109375 C -11.789062 -9.742188 -12.050781 -9.332031 -12.28125 -8.875 C -12.457031 -8.5 -12.601562 -8.046875 -12.71875 -7.515625 C -12.84375 -6.984375 -12.847656 -6.40625 -12.734375 -5.78125 C -12.628906 -5.175781 -12.40625 -4.628906 -12.0625 -4.140625 C -11.71875 -3.648438 -11.285156 -3.238281 -10.765625 -2.90625 C -10.242188 -2.582031 -9.644531 -2.359375 -8.96875 -2.234375 C -8.300781 -2.117188 -7.578125 -2.128906 -6.796875 -2.265625 C -6.015625 -2.410156 -5.328125 -2.65625 -4.734375 -3 C -4.148438 -3.34375 -3.664062 -3.757812 -3.28125 -4.25 C -2.90625 -4.738281 -2.644531 -5.269531 -2.5 -5.84375 C -2.363281 -6.414062 -2.347656 -7.003906 -2.453125 -7.609375 C -2.578125 -8.296875 -2.789062 -8.875 -3.09375 -9.34375 C -3.40625 -9.820312 -3.726562 -10.210938 -4.0625 -10.515625 C -4.4375 -10.867188 -4.859375 -11.164062 -5.328125 -11.40625 L -4.703125 -12.421875 C -4.109375 -12.171875 -3.566406 -11.8125 -3.078125 -11.34375 C -2.648438 -10.957031 -2.234375 -10.453125 -1.828125 -9.828125 C -1.421875 -9.210938 -1.132812 -8.4375 -0.96875 -7.5 Z M -0.96875 -7.5 "/></g></g></g><g fill="#002855" fill-opacity="1"><g transform="translate(91.955798, 191.316939)"><g><path d="M 0.0625 -7.578125 C 0.101562 -6.609375 -0.03125 -5.695312 -0.34375 -4.84375 C -0.664062 -3.988281 -1.113281 -3.242188 -1.6875 -2.609375 C -2.257812 -1.984375 -2.941406 -1.476562 -3.734375 -1.09375 C -4.535156 -0.71875 -5.398438 -0.507812 -6.328125 -0.46875 C -7.253906 -0.4375 -8.125 -0.578125 -8.9375 -0.890625 C -9.75 -1.203125 -10.46875 -1.648438 -11.09375 -2.234375 C -11.726562 -2.828125 -12.234375 -3.535156 -12.609375 -4.359375 C -12.984375 -5.179688 -13.191406 -6.078125 -13.234375 -7.046875 C -13.273438 -8.015625 -13.140625 -8.921875 -12.828125 -9.765625 C -12.515625 -10.609375 -12.066406 -11.347656 -11.484375 -11.984375 C -10.910156 -12.617188 -10.226562 -13.128906 -9.4375 -13.515625 C -8.644531 -13.898438 -7.785156 -14.109375 -6.859375 -14.140625 C -5.929688 -14.179688 -5.054688 -14.039062 -4.234375 -13.71875 C -3.421875 -13.40625 -2.703125 -12.953125 -2.078125 -12.359375 C -1.453125 -11.765625 -0.945312 -11.0625 -0.5625 -10.25 C -0.1875 -9.4375 0.0195312 -8.546875 0.0625 -7.578125 Z M -1.375 -7.515625 C -1.394531 -8.054688 -1.535156 -8.566406 -1.796875 -9.046875 C -2.054688 -9.523438 -2.421875 -9.945312 -2.890625 -10.3125 C -3.359375 -10.6875 -3.914062 -10.972656 -4.5625 -11.171875 C -5.21875 -11.378906 -5.953125 -11.46875 -6.765625 -11.4375 C -7.566406 -11.40625 -8.285156 -11.257812 -8.921875 -11 C -9.566406 -10.75 -10.101562 -10.421875 -10.53125 -10.015625 C -10.957031 -9.617188 -11.28125 -9.171875 -11.5 -8.671875 C -11.71875 -8.171875 -11.816406 -7.648438 -11.796875 -7.109375 C -11.773438 -6.566406 -11.632812 -6.050781 -11.375 -5.5625 C -11.113281 -5.070312 -10.753906 -4.644531 -10.296875 -4.28125 C -9.835938 -3.914062 -9.28125 -3.628906 -8.625 -3.421875 C -7.96875 -3.222656 -7.238281 -3.140625 -6.4375 -3.171875 C -5.625 -3.203125 -4.898438 -3.34375 -4.265625 -3.59375 C -3.628906 -3.851562 -3.09375 -4.179688 -2.65625 -4.578125 C -2.21875 -4.972656 -1.890625 -5.425781 -1.671875 -5.9375 C -1.453125 -6.445312 -1.351562 -6.972656 -1.375 -7.515625 Z M -1.375 -7.515625 "/></g></g></g><g fill="#002855" fill-opacity="1"><g transform="translate(91.389617, 176.971657)"><g><path d="M -12.40625 -2.578125 L -12.171875 -4.8125 L -2.484375 -10.734375 L -2.46875 -10.828125 L -11.5 -11.71875 L -11.34375 -13.328125 L 1.1875 -12.09375 L 0.96875 -9.859375 L -8.75 -3.9375 L -8.75 -3.84375 L 0.296875 -2.953125 L 0.125 -1.34375 Z M -12.40625 -2.578125 "/></g></g></g><g fill="#002855" fill-opacity="1"><g transform="translate(92.678438, 164.201289)"><g><path d="M -9.875 -6.59375 L -10.75 -2.5625 L -12.25 -2.890625 L -9.9375 -13.4375 L -8.5 -12.828125 L -9.328125 -9.0625 L 1.46875 -6.6875 L 0.921875 -4.21875 Z M -9.875 -6.59375 "/></g></g></g><g fill="#002855" fill-opacity="1"><g transform="translate(94.866734, 153.906157)"><g><path d="M -11.46875 -5.359375 L -9.96875 -9.703125 C -9.675781 -10.566406 -9.320312 -11.28125 -8.90625 -11.84375 C -8.488281 -12.414062 -8.035156 -12.851562 -7.546875 -13.15625 C -7.054688 -13.457031 -6.539062 -13.632812 -6 -13.6875 C -5.457031 -13.75 -4.921875 -13.691406 -4.390625 -13.515625 C -3.773438 -13.296875 -3.3125 -12.988281 -3 -12.59375 C -2.695312 -12.207031 -2.476562 -11.832031 -2.34375 -11.46875 C -2.207031 -11.019531 -2.148438 -10.550781 -2.171875 -10.0625 L -2.078125 -10.03125 L 4.03125 -11.75 L 3.125 -9.109375 L -2.21875 -7.65625 L -3.078125 -5.171875 L 1.265625 -3.671875 L 0.4375 -1.265625 Z M -3.765625 -7.578125 C -3.640625 -7.960938 -3.582031 -8.332031 -3.59375 -8.6875 C -3.601562 -9.039062 -3.675781 -9.363281 -3.8125 -9.65625 C -3.945312 -9.957031 -4.140625 -10.21875 -4.390625 -10.4375 C -4.640625 -10.664062 -4.929688 -10.835938 -5.265625 -10.953125 C -5.609375 -11.066406 -5.945312 -11.109375 -6.28125 -11.078125 C -6.613281 -11.054688 -6.925781 -10.972656 -7.21875 -10.828125 C -7.507812 -10.679688 -7.769531 -10.46875 -8 -10.1875 C -8.226562 -9.914062 -8.40625 -9.585938 -8.53125 -9.203125 L -9.203125 -7.265625 L -4.4375 -5.640625 Z M -3.765625 -7.578125 "/></g></g></g><g fill="#002855" fill-opacity="1"><g transform="translate(98.698204, 142.617002)"><g><path d="M -8.953125 -10.375 L -8.015625 -12.3125 L 5.515625 -11.328125 L 4.34375 -8.90625 L 1.25 -9.125 L -1.203125 -4.109375 L 0.875 -1.78125 L 0.078125 -0.171875 Z M -0.390625 -9.28125 L -6.1875 -9.71875 L -6.234375 -9.640625 L -2.3125 -5.328125 Z M -0.390625 -9.28125 "/></g></g></g><g fill="#002855" fill-opacity="1"><g transform="translate(103.935422, 131.726704)"><g><path d="M 4.4375 -6.125 C 3.90625 -5.3125 3.265625 -4.648438 2.515625 -4.140625 C 1.765625 -3.640625 0.972656 -3.296875 0.140625 -3.109375 C -0.691406 -2.929688 -1.539062 -2.914062 -2.40625 -3.0625 C -3.28125 -3.21875 -4.101562 -3.546875 -4.875 -4.046875 C -5.65625 -4.554688 -6.285156 -5.175781 -6.765625 -5.90625 C -7.253906 -6.644531 -7.582031 -7.429688 -7.75 -8.265625 C -7.925781 -9.109375 -7.925781 -9.972656 -7.75 -10.859375 C -7.582031 -11.753906 -7.234375 -12.609375 -6.703125 -13.421875 C -6.222656 -14.148438 -5.691406 -14.710938 -5.109375 -15.109375 C -4.523438 -15.503906 -3.976562 -15.796875 -3.46875 -15.984375 C -2.875 -16.179688 -2.269531 -16.304688 -1.65625 -16.359375 L -1.4375 -15.234375 C -1.90625 -15.171875 -2.378906 -15.050781 -2.859375 -14.875 C -3.242188 -14.71875 -3.660156 -14.484375 -4.109375 -14.171875 C -4.554688 -13.867188 -4.957031 -13.453125 -5.3125 -12.921875 C -5.644531 -12.410156 -5.859375 -11.859375 -5.953125 -11.265625 C -6.046875 -10.679688 -6.007812 -10.09375 -5.84375 -9.5 C -5.6875 -8.90625 -5.40625 -8.332031 -5 -7.78125 C -4.59375 -7.226562 -4.054688 -6.734375 -3.390625 -6.296875 C -2.734375 -5.867188 -2.070312 -5.582031 -1.40625 -5.4375 C -0.738281 -5.289062 -0.101562 -5.257812 0.5 -5.34375 C 1.113281 -5.4375 1.671875 -5.644531 2.171875 -5.96875 C 2.671875 -6.289062 3.085938 -6.707031 3.421875 -7.21875 C 3.804688 -7.800781 4.046875 -8.367188 4.140625 -8.921875 C 4.242188 -9.484375 4.273438 -9.988281 4.234375 -10.4375 C 4.203125 -10.957031 4.109375 -11.457031 3.953125 -11.9375 L 5.09375 -12.25 C 5.34375 -11.65625 5.492188 -11.03125 5.546875 -10.375 C 5.585938 -9.800781 5.539062 -9.144531 5.40625 -8.40625 C 5.28125 -7.675781 4.957031 -6.914062 4.4375 -6.125 Z M 4.4375 -6.125 "/></g></g></g><g fill="#002855" fill-opacity="1"><g transform="translate(110.881973, 121.142281)"><g><path d="M -5.71875 -10.40625 L -8.359375 -7.234375 L -9.53125 -8.21875 L -2.609375 -16.5 L -1.609375 -15.296875 L -4.09375 -12.34375 L 4.390625 -5.25 L 2.765625 -3.3125 Z M -5.71875 -10.40625 "/></g></g></g><g fill="#002855" fill-opacity="1"><g transform="translate(117.831053, 112.99121)"><g><path d="M -8.0625 -9.765625 L -6.28125 -11.578125 L 2.71875 -2.765625 L 0.9375 -0.953125 Z M -8.0625 -9.765625 "/></g></g></g><g fill="#002855" fill-opacity="1"><g transform="translate(120.98842, 109.473828)"><g><path d="M -7.140625 -10.46875 L -5.421875 -11.921875 L 5.671875 -9.4375 L 5.734375 -9.5 L -0.140625 -16.421875 L 1.09375 -17.46875 L 9.25 -7.875 L 7.546875 -6.421875 L -3.5625 -8.90625 L -3.625 -8.84375 L 2.265625 -1.921875 L 1.015625 -0.875 Z M -7.140625 -10.46875 "/></g></g></g><g fill="#002855" fill-opacity="1"><g transform="translate(130.654323, 101.141445)"><g><path d="M 6.546875 -3.796875 C 5.734375 -3.265625 4.878906 -2.914062 3.984375 -2.75 C 3.085938 -2.59375 2.222656 -2.601562 1.390625 -2.78125 C 0.554688 -2.957031 -0.222656 -3.289062 -0.953125 -3.78125 C -1.679688 -4.269531 -2.296875 -4.90625 -2.796875 -5.6875 C -3.296875 -6.46875 -3.617188 -7.289062 -3.765625 -8.15625 C -3.910156 -9.019531 -3.890625 -9.867188 -3.703125 -10.703125 C -3.523438 -11.546875 -3.171875 -12.335938 -2.640625 -13.078125 C -2.117188 -13.816406 -1.453125 -14.453125 -0.640625 -14.984375 C 0.0976562 -15.453125 0.8125 -15.75 1.5 -15.875 C 2.195312 -16 2.816406 -16.039062 3.359375 -16 C 3.992188 -15.945312 4.59375 -15.816406 5.15625 -15.609375 L 4.90625 -14.5 C 4.445312 -14.632812 3.96875 -14.71875 3.46875 -14.75 C 3.050781 -14.757812 2.570312 -14.71875 2.03125 -14.625 C 1.5 -14.53125 0.960938 -14.3125 0.421875 -13.96875 C -0.0859375 -13.632812 -0.503906 -13.21875 -0.828125 -12.71875 C -1.148438 -12.21875 -1.359375 -11.660156 -1.453125 -11.046875 C -1.554688 -10.441406 -1.535156 -9.804688 -1.390625 -9.140625 C -1.242188 -8.472656 -0.957031 -7.804688 -0.53125 -7.140625 C -0.101562 -6.472656 0.382812 -5.9375 0.9375 -5.53125 C 1.488281 -5.125 2.054688 -4.835938 2.640625 -4.671875 C 3.234375 -4.515625 3.828125 -4.476562 4.421875 -4.5625 C 5.015625 -4.644531 5.566406 -4.851562 6.078125 -5.1875 C 6.421875 -5.40625 6.703125 -5.644531 6.921875 -5.90625 C 7.140625 -6.164062 7.320312 -6.414062 7.46875 -6.65625 C 7.613281 -6.925781 7.734375 -7.203125 7.828125 -7.484375 L 6.0625 -10.21875 L 3.5625 -8.609375 L 2.734375 -9.890625 L 7.34375 -12.859375 L 11.046875 -7.109375 L 10.296875 -6.609375 L 9.234375 -7.4375 L 9.15625 -7.390625 C 9.050781 -6.953125 8.890625 -6.523438 8.671875 -6.109375 C 8.492188 -5.753906 8.226562 -5.363281 7.875 -4.9375 C 7.53125 -4.519531 7.085938 -4.140625 6.546875 -3.796875 Z M 6.546875 -3.796875 "/></g></g></g></svg>